<?xml version="1.0" encoding="UTF-8" standalone="no"?>
<!-- Created with Inkscape (http://www.inkscape.org/) -->
<svg
   xmlns:svg="http://www.w3.org/2000/svg"
   xmlns="http://www.w3.org/2000/svg"
   version="1.0"
   width="312.80124"
   height="78.459503"
   id="svg2659">
  <defs
     id="defs2661" />
  <g
     transform="translate(-49.313659,-313.13243)"
     id="layer1">
    <path
       d="M 49.313659,391.59193 L 362.11491,391.59193 L 362.11491,313.13243 L 49.313659,313.13243 L 49.313659,391.59193 z"
       id="path25"
       style="fill:#000000;fill-opacity:1;fill-rule:nonzero;stroke:none" />
    <path
       d="M 107.74042,331.10193 C 107.74042,330.58818 107.61592,330.46443 107.1633,330.14318 C 102.9968,327.44943 96.773671,325.78443 90.877174,325.78443 C 74.776049,325.78443 63.101799,337.00318 63.101799,352.52068 C 63.101799,367.52943 73.684299,377.66068 89.203299,377.66068 C 93.502671,377.66068 96.966551,376.89068 99.405921,375.41318 C 100.04755,375.03443 100.11105,374.89818 100.30142,373.55818 L 101.58317,364.70568 C 101.64867,364.12818 101.64867,363.87568 101.64867,363.74568 C 101.64867,363.35818 101.58317,363.17068 101.45867,363.17068 C 101.3288,363.17068 101.13642,363.23068 100.88342,363.35818 C 100.4963,363.55318 100.04755,363.67943 99.468921,363.87568 C 96.065671,364.83568 92.925421,365.47693 90.424924,365.47693 C 82.918674,365.47693 77.471424,359.83318 77.471424,352.07443 C 77.471424,343.66818 83.624674,337.83943 92.474301,337.83943 C 96.198921,337.83943 100.62317,338.98943 103.51142,340.78693 C 104.66817,341.55568 104.98255,341.68318 105.24042,341.68318 C 105.62317,341.68318 105.69155,341.62318 105.94505,340.27693 L 107.54555,332.25818 C 107.67842,331.61693 107.74042,331.35818 107.74042,331.10193 M 143.46842,327.44943 L 128.65155,327.44943 C 127.75167,327.44943 127.56217,327.57568 127.17492,328.34568 L 104.34292,374.51193 C 104.27855,374.70943 104.21555,374.89818 104.21555,375.09193 C 104.21555,375.35443 104.40592,375.54443 104.72867,375.54443 L 117.16917,375.54443 C 118.00317,375.54443 118.4518,375.28693 118.70967,374.77318 L 121.91767,368.17068 C 122.23842,367.52943 122.4938,367.39943 123.19942,367.39943 L 138.8483,367.39943 C 139.36242,367.39943 139.81067,367.72318 139.87817,368.23318 L 141.54417,374.89818 C 141.67105,375.28693 141.99092,375.54443 142.44255,375.54443 L 153.5383,375.54443 C 153.92205,375.54443 154.11342,375.35443 154.11342,374.96068 L 154.11342,374.70943 L 144.55342,328.47693 C 144.36342,327.70568 144.10855,327.44943 143.46842,327.44943 M 133.65305,341.49443 C 133.72092,341.49443 133.9098,341.75068 133.9748,342.13693 L 137.2468,355.79068 C 137.3083,356.05193 137.37417,356.23943 137.37417,356.36943 C 137.37417,356.50068 137.1813,356.62568 136.73017,356.62568 L 127.4313,356.62568 C 127.17492,356.62568 126.98167,356.56193 126.98167,356.43068 C 127.04705,356.23943 127.04705,356.23943 127.11292,356.05193 L 133.33317,341.94318 C 133.46067,341.68318 133.59242,341.49443 133.65305,341.49443 M 160.21117,374.89818 C 160.21117,375.47818 160.33567,375.54443 161.29992,375.54443 L 172.00842,375.54443 C 172.65105,375.54443 172.96842,375.28693 173.03442,374.64568 L 176.88217,347.19568 C 176.94842,346.74818 177.00967,346.36693 177.07842,346.36693 C 177.13842,346.36693 177.33092,346.62193 177.58842,347.00693 L 193.30092,374.64568 C 193.68467,375.35443 194.07342,375.54443 194.84092,375.54443 L 205.80842,375.54443 C 206.64342,375.54443 206.96342,375.35443 207.02342,374.77318 L 213.44092,328.34568 L 213.44092,328.15318 C 213.44092,327.57568 213.24842,327.44943 212.60717,327.44943 L 201.25467,327.44943 C 200.29217,327.44943 200.10092,327.64193 199.97092,328.40943 L 196.51092,353.28693 C 196.44217,353.87193 196.31592,354.25318 196.19217,354.25318 C 196.05967,354.25318 195.86967,353.99693 195.60967,353.54818 L 181.24592,328.34568 C 180.79342,327.51318 180.66842,327.44943 179.70467,327.44943 L 167.52217,327.44943 C 166.93967,327.44943 166.5573,327.70568 166.4938,328.27693 L 160.21117,374.64568 L 160.21117,374.89818 z M 212.60717,375.22318 C 212.60717,375.41318 212.79842,375.54443 213.11592,375.54443 L 225.43342,375.54443 C 226.14092,375.54443 226.52842,375.35443 226.78342,374.83193 L 230.24467,368.10318 C 230.56967,367.46318 230.75717,367.39943 231.59592,367.39943 L 246.40967,367.39943 C 247.43967,367.39943 247.56342,367.52943 247.75217,368.42318 L 248.97592,374.64568 C 249.10342,375.35443 249.42717,375.54443 250.19467,375.54443 L 261.16092,375.54443 C 261.74092,375.54443 261.93217,375.47818 261.93217,375.15693 C 261.93217,374.96068 261.93217,374.70943 261.86717,374.51193 L 252.18092,328.40943 C 251.99092,327.57568 251.85717,327.44943 251.02592,327.44943 L 236.91592,327.44943 C 236.08342,327.44943 235.82967,327.57568 235.50967,328.27693 L 212.79842,374.64568 C 212.66717,374.89818 212.60717,375.09193 212.60717,375.22318 M 241.85467,340.91318 C 241.92342,340.91318 242.04717,341.17318 242.10967,341.49443 L 245.19342,355.53568 C 245.19342,355.72818 245.25592,355.98318 245.25592,356.17693 C 245.25592,356.43068 244.99967,356.62568 244.54967,356.62568 L 235.89217,356.62568 C 235.25217,356.62568 235.06092,356.50068 235.06092,356.23943 C 235.06092,356.05193 235.11967,355.85818 235.18592,355.66193 L 241.46967,341.49443 C 241.66467,341.11318 241.79342,340.91318 241.85467,340.91318 M 273.92592,328.47693 L 267.25467,374.70943 L 267.25467,375.03443 C 267.25467,375.41318 267.38467,375.54443 267.83467,375.54443 L 294.76967,375.54443 C 295.41092,375.54443 295.66592,375.35443 295.73217,374.77318 L 297.01217,365.60568 L 297.01217,365.34443 C 297.01217,364.83568 296.88842,364.70568 296.37342,364.70568 L 283.48717,364.70568 C 282.90592,364.70568 282.71217,364.51193 282.71217,364.00068 L 282.71217,363.87568 L 287.52217,328.27693 L 287.52217,328.02318 C 287.52217,327.57568 287.39342,327.44943 286.88092,327.44943 L 274.75842,327.44943 C 274.24842,327.44943 274.05092,327.70568 273.92592,328.47693 M 331.52717,356.56193 L 347.42967,356.56193 C 347.87717,356.56193 348.13342,356.30318 348.13342,355.79068 L 348.13342,342.71068 C 348.13342,342.06818 347.94092,341.87693 347.42967,341.87693 L 331.33217,341.87693 C 330.81842,341.87693 330.68842,341.68318 330.68842,340.97818 L 330.68842,326.16693 C 330.68842,325.71568 330.43217,325.52193 329.84967,325.52193 L 316.77217,325.52193 C 316.38717,325.52193 316.12467,325.78443 316.12467,326.16693 L 316.12467,340.97818 C 316.12467,341.62318 315.93842,341.87693 315.35717,341.87693 L 298.16842,341.87693 C 297.71717,341.87693 297.46092,342.06818 297.46092,342.57943 L 297.46092,355.72818 C 297.46092,356.30318 297.71717,356.56193 298.23342,356.56193 L 315.29342,356.56193 C 315.87717,356.56193 316.12467,356.81943 316.12467,357.52318 L 316.12467,374.77318 C 316.12467,375.28693 316.38717,375.54443 316.83592,375.54443 L 329.98092,375.54443 C 330.49967,375.54443 330.68842,375.28693 330.68842,374.64568 L 330.68842,357.39943 C 330.68842,356.69443 330.81842,356.56193 331.52717,356.56193"
       id="path27"
       style="fill:#ffffff;fill-opacity:1;fill-rule:nonzero;stroke:none" />
  </g>
</svg>
