<?xml version="1.0" encoding="utf-8"?>
<!-- Generator: Adobe Illustrator 12.0.0, SVG Export Plug-In . SVG Version: 6.00 Build 51448)  -->
<!DOCTYPE svg PUBLIC "-//W3C//DTD SVG 1.1//EN" "http://www.w3.org/Graphics/SVG/1.1/DTD/svg11.dtd" [
	<!ENTITY ns_svg "http://www.w3.org/2000/svg">
	<!ENTITY ns_xlink "http://www.w3.org/1999/xlink">
]>
<svg  version="1.1" id="Layer_1" xmlns="&ns_svg;" xmlns:xlink="&ns_xlink;" width="643.78" height="492.583"
	 viewBox="0 0 643.78 492.583" overflow="visible" enable-background="new 0 0 643.78 492.583" xml:space="preserve">
<g>
	<path fill-rule="evenodd" clip-rule="evenodd" d="M563.384,19.351c0,0,0-0.439-0.439-0.439C552.832,12.314,542.715,6.157,532.158,0
		c0,0,0,0.439,0,0.884c0,46.177,0,91.914,0.884,136.777c12.31-17.153,25.942-32.988,40.459-48.379
		c2.642-6.157,6.157-11.436,10.996-15.835c4.399-4.839,9.673-8.354,15.835-10.996c12.314-4.834,22.432-3.96,30.781,3.521
		c0.879,2.197,1.758,4.839,2.637,6.597c3.525,18.032,0.449,32.104-9.668,42.661c-17.598,6.157-31.23,16.274-41.782,29.907
		c-14.956,19.351-28.589,40.903-40.024,63.77c-3.076,1.763-4.839,4.839-6.597,8.799c-0.884,1.758-0.884,3.955-1.323,6.157
		c-1.758,22.427-2.632,46.177-2.632,70.366c0,46.616,0.435,92.358,1.318,138.101c0.439,0,0.439,0,0.439,0
		c10.112-7.48,20.229-14.517,30.781-21.553c0-30.347,0-60.254,0-90.601c0-45.737,0-92.358,0-138.535h0.439
		c11.44-18.911,25.073-35.625,40.464-50.576c0.439,0,0.439,0,0.879,0c11.436-3.96,21.113-9.678,28.584-17.598
		c2.197-4.395,4.404-8.794,6.162-13.193c5.273-15.83,3.516-29.463-4.844-40.898c-8.35-7.036-19.785-9.233-33.857-6.157
		c-3.965,0.879-7.041,2.197-9.678,4.399c-11.875,7.915-20.669,18.032-28.149,29.902c0,0,0-0.439,0-0.879
		C564.702,63.77,564.263,41.343,563.384,19.351L563.384,19.351L563.384,19.351L563.384,19.351z M233.53,289.39
		c-9.233-9.238-18.032-18.467-27.705-27.266c0,10.557,0,21.113,0,32.104c-0.439,46.616-0.439,92.358,0.439,138.101
		c0.439,0,0.439,0,0.439,0c8.794-7.48,18.032-14.077,27.271-20.669c0-0.439,0-0.884,0-0.884c0-40.459,0-80.923,0-121.387
		C233.975,289.39,233.975,289.39,233.53,289.39L233.53,289.39L233.53,289.39L233.53,289.39z M319.731,259.482
		c-16.709,13.198-33.423,26.826-49.697,40.024v0.439c11.88-2.197,24.189-4.399,36.509-7.036c0-0.439,0-0.879,0-0.879
		c4.395-3.521,9.233-7.036,14.072-10.557c0-0.439,0-0.879,0-1.323C320.615,272.681,320.615,265.645,319.731,259.482L319.731,259.482
		L319.731,259.482L319.731,259.482z M276.636,41.343c-3.521-2.642-6.602-4.839-9.678-6.597
		c-16.714-10.996-34.746-20.234-54.097-27.71c-0.439,0.439-0.439,0.439,0,0.439c14.951,17.153,30.786,34.746,46.182,51.899
		c0-0.444,0-0.884,0.435-0.884C265.195,52.773,270.918,47.061,276.636,41.343L276.636,41.343L276.636,41.343L276.636,41.343z
		 M456.509,215.942c0.884,13.198,5.718,21.992,14.517,26.387c3.521-0.439,5.718-1.758,7.041-4.395
		c3.076-7.036,6.157-14.512,10.112-21.992c3.96-7.036,7.476-14.512,11.436-21.108c7.915-15.83,16.27-31.226,24.189-46.621
		c0-3.076,0-6.157,0-9.233c0-46.621,0-92.798,0-138.979c-18.911,0-38.262,0-57.178,0c-46.616,0-92.798,0-139.414,0
		c0,0,0,0.439,0,0.884c-23.311,23.306-46.621,46.177-69.927,69.043c-0.439,0-0.439,0-0.439,0
		C236.611,46.182,215.938,22.432,194.39,0c-18.472,0-36.504,0-54.976,0C93.232,0,46.616,0,0.439,0c0,5.278,0,10.557,0,15.835
		c0,46.177,0,92.358,0,138.535c0,20.674,0,41.343,0,61.572c0,25.947,0,51.899,0,77.847c0,46.177,0,92.358,0,138.54
		c19.79,0,39.58,0,59.375,0c46.177,0,92.793,0,138.975,0c0-17.153,0-34.746-0.439-51.899c-0.439-46.616,0-92.798,0.879-138.101
		c0,0,0,0,0.439,0.444c18.911,19.79,38.262,39.58,57.617,59.375c0-0.439,0.435-0.439,0.435-0.884
		c23.311-19.79,47.065-40.02,70.371-59.814c0,17.153,0,34.746,0,52.339c0,46.177,0,92.358,0,138.54c19.351,0,38.701,0,58.496,0
		c46.616,0.439,92.358,0,137.656-0.884c0-18.027,0-35.62,0-53.652c0-46.177-0.439-91.924-0.879-137.222
		c-8.359,12.314-15.396,26.831-21.113,41.782c-0.879,1.763-1.318,4.399-1.318,6.157c0,21.992-4.839,37.827-14.951,48.379
		c-0.439,0-0.884,0-0.884,0.439c-7.915,3.076-15.391,2.637-22.871-0.879c0-0.439,0-0.879,0-0.879
		c-0.879-0.884-2.197-1.758-3.076-2.197c-4.839-7.92-8.354-16.274-10.991-25.513c-8.799-30.781-18.032-61.572-27.71-91.919
		c-1.318-4.834-3.081-9.673-4.399-14.951c-3.521-10.552-3.96-20.229-0.879-29.907c0-0.439,0-0.439,0-0.439
		c4.839-2.642,9.233-5.278,13.633-7.915c0.444,0,0.879,0,0.879,0c6.602-0.439,12.319-0.439,18.032,0c0,0.439,0,0.439,0,0.879
		c1.763,1.318,3.521,2.637,4.839,4.834c1.758,8.359,2.637,17.158,3.521,26.392c0.435,4.839,0.879,9.673,0.435,14.951
		C456.074,211.987,456.074,214.185,456.509,215.942L456.509,215.942L456.509,215.942z M285.869,215.942
		c-4.839,5.278-9.233,11.436-12.754,18.477c0,0.439,0,0.439,0,0.879c-8.359,5.273-16.27,4.834-24.189-0.879
		c-0.439,0-0.439,0-0.879,0c-3.96-4.399-6.597-9.678-7.92-16.714c0-0.439,0-0.879,0-0.879c0-0.439,0-0.439,0-0.884
		c3.96-13.193,13.198-21.108,28.149-23.75c3.081-0.439,5.718-1.753,8.359-3.516c1.758-1.758,4.395-2.637,7.036-3.516
		c16.274-12.759,34.302-23.75,53.652-32.988c0.444,0,0.884,0,0.884,0c1.758-2.202,3.076-4.399,4.395-6.597
		c0-0.439,0-0.439,0.439-0.439c-0.874-4.399-1.758-8.799-2.197-14.072v-0.439c1.323-2.642,2.637-4.839,4.399-6.602
		c0-0.439,0-0.879,0-1.318c3.076-3.076,7.476-4.839,12.754-6.597v-0.439c8.794,1.318,16.709,2.197,23.75,2.197
		c2.197,0,4.399-0.439,6.597-0.879c10.112-3.521,19.351-7.476,28.145-11.875c4.839-8.794,12.759-14.951,22.432-19.351l0,0
		c0.439,0,0.439,0,0.439-0.439c3.521,0,7.036,0,10.557,0c0.439,0,0.439,0,0.879,0c2.637,2.197,5.278,4.399,7.915,7.036
		c0,0,0,0,0.439,0c3.521,11.436,1.318,20.234-6.597,26.826v0.444c-14.512,6.157-28.584,13.633-40.903,21.987h-0.439
		c-7.031,0.879-12.754,3.521-16.709,7.041c-0.439,0.439-0.439,0.439-0.439,0.439c-1.763,20.229-1.763,42.222,0,65.967
		c0,0.439,0,0.879,0,0.879c0.879,6.162,0.879,12.319,0.879,18.477c0,26.826,0.439,53.652,0.879,81.362
		c0.439,5.718,1.323,10.996,3.076,16.274c2.202,7.031,3.521,14.951,3.96,22.866c0.884,6.597,0.439,12.754-1.323,18.032
		c-0.874,1.318-1.318,3.081-1.758,4.839c-2.197,1.758-3.955,3.521-5.713,5.718c0,0.439,0,0.439,0,0.879
		c-12.314,3.516-23.311,2.637-33.428-3.076c0,0-0.439,0-0.879,0c-3.521-10.557-6.157-23.311-7.036-36.948
		c-0.444-5.278-1.323-9.678-2.642-14.951c-2.637-11.436-2.637-23.75,0-36.943c0.879-2.642,1.318-5.278,1.758-7.915
		c1.323-18.032,1.763-36.064,1.323-54.536c-0.439-4.839-0.439-9.678-0.439-14.077c-1.323-13.633-3.521-26.387-6.157-38.262
		c-10.557,3.521-19.79,8.359-27.71,14.512c-7.915,6.157-15.83,11.436-24.629,16.714l0,0
		C291.147,210.669,288.506,213.306,285.869,215.942L285.869,215.942L285.869,215.942z"/>
	<path fill-rule="evenodd" clip-rule="evenodd" d="M544.033,447.28c-4.399,0-8.354,3.955-8.354,8.359c0,4.395,3.955,7.92,8.354,7.92
		s7.915-3.525,7.915-7.92C551.948,451.235,548.433,447.28,544.033,447.28L544.033,447.28L544.033,447.28L544.033,447.28z
		 M544.033,463.11c-3.955,0-7.476-3.516-7.476-7.471c0-4.404,3.076-7.48,7.476-7.48s7.476,3.076,7.476,7.48
		C551.509,459.595,548.433,463.11,544.033,463.11L544.033,463.11L544.033,463.11L544.033,463.11z"/>
	<polygon fill-rule="evenodd" clip-rule="evenodd" points="21.987,476.743 21.548,476.743 12.31,444.644 0,444.644 0,491.265 
		8.354,491.265 8.354,458.716 18.027,491.265 24.629,491.265 34.741,458.276 34.741,491.265 43.096,491.265 43.096,444.644 
		30.781,444.644 21.987,476.743 21.987,476.743 	"/>
	<path fill-rule="evenodd" clip-rule="evenodd" d="M73.887,473.667c0,7.041-1.763,10.557-7.92,10.557
		c-7.476,0-8.354-5.283-8.354-10.557l0,0v-29.023h-8.799v29.023c0,12.754,6.162,18.916,17.153,18.916
		c10.557,0,16.714-6.162,16.714-18.916l0,0v-29.023h-8.794V473.667L73.887,473.667L73.887,473.667z"/>
	<path fill-rule="evenodd" clip-rule="evenodd" d="M109.512,463.56c-10.557-2.646-12.759-3.086-12.759-7.041
		c0-3.965,3.521-5.283,6.597-5.283c4.399,0,7.92,1.318,8.359,7.48l0,0h8.794c0-10.996-7.915-15.396-16.714-15.396
		c-7.915,0-15.83,4.399-15.83,14.517c0,8.799,6.157,11.436,12.314,13.193c6.597,1.758,12.754,2.637,12.754,7.48
		c0,4.834-4.839,6.152-8.354,6.152c-4.839,0-9.238-2.637-9.238-8.799l0,0h-8.794c-0.439,11.436,8.354,16.719,17.593,16.719
		c11.431,0,17.588-6.162,17.588-14.961C121.821,467.075,112.588,464.878,109.512,463.56L109.512,463.56L109.512,463.56
		L109.512,463.56z"/>
	<polygon fill-rule="evenodd" clip-rule="evenodd" points="127.539,491.265 136.777,491.265 136.777,444.644 127.539,444.644 
		127.539,491.265 127.539,491.265 	"/>
	<path fill-rule="evenodd" clip-rule="evenodd" d="M164.043,484.224c-8.354,0-11.436-8.359-11.436-16.27
		c0-7.92,3.081-15.83,11.436-15.83c4.399,0,8.354,3.516,9.238,8.35l0,0h8.794c-0.879-10.996-8.794-17.153-18.032-17.153
		c-13.193,0-20.669,10.991-20.669,24.634c0,14.072,7.476,24.629,20.669,24.629c10.117,0,17.593-7.48,18.472-19.355l0,0h-9.233
		C172.837,479.829,169.766,484.224,164.043,484.224L164.043,484.224L164.043,484.224L164.043,484.224z"/>
	<polygon fill-rule="evenodd" clip-rule="evenodd" points="194.829,453.442 207.583,453.442 207.583,491.265 216.821,491.265 
		216.821,453.442 229.575,453.442 229.575,444.644 194.829,444.644 194.829,453.442 194.829,453.442 	"/>
	<polygon fill-rule="evenodd" clip-rule="evenodd" points="242.769,471.47 262.998,471.47 262.998,463.11 242.769,463.11 
		242.769,453.442 264.756,453.442 264.756,444.644 233.091,444.644 233.091,491.265 265.195,491.265 265.195,482.905 
		242.769,482.905 242.769,471.47 242.769,471.47 	"/>
	<polygon fill-rule="evenodd" clip-rule="evenodd" points="279.272,444.644 270.034,444.644 270.034,491.265 297.744,491.265 
		297.744,482.905 279.272,482.905 279.272,444.644 279.272,444.644 	"/>
	<polygon fill-rule="evenodd" clip-rule="evenodd" points="310.938,471.47 331.611,471.47 331.611,463.11 310.938,463.11 
		310.938,453.442 333.369,453.442 333.369,444.644 301.699,444.644 301.699,491.265 333.809,491.265 333.809,482.905 
		310.938,482.905 310.938,471.47 310.938,471.47 	"/>
	<polygon fill-rule="evenodd" clip-rule="evenodd" points="354.482,477.622 354.482,477.622 345.244,444.644 335.566,444.644 
		349.199,491.265 359.756,491.265 373.828,444.644 364.155,444.644 354.482,477.622 354.482,477.622 	"/>
	<polygon fill-rule="evenodd" clip-rule="evenodd" points="379.106,491.265 388.345,491.265 388.345,444.644 379.106,444.644 
		379.106,491.265 379.106,491.265 	"/>
	<path fill-rule="evenodd" clip-rule="evenodd" d="M413.853,463.56c-10.557-2.646-12.319-3.086-12.319-7.041
		c0-3.965,3.521-5.283,6.162-5.283c4.395,0,8.354,1.318,8.354,7.48l0,0h9.238c0-10.996-8.359-15.396-17.153-15.396
		c-7.476,0-15.835,4.399-15.835,14.517c0,8.799,6.597,11.436,12.754,13.193s12.754,2.637,12.754,7.48
		c0,4.834-5.278,6.152-8.354,6.152c-4.839,0-9.238-2.637-9.238-8.799l0,0h-9.233c0,11.436,8.794,16.719,18.032,16.719
		c11.436,0,17.593-6.162,17.593-14.961C426.606,467.075,416.929,464.878,413.853,463.56L413.853,463.56L413.853,463.56
		L413.853,463.56z"/>
	<polygon fill-rule="evenodd" clip-rule="evenodd" points="433.203,491.265 442.441,491.265 442.441,444.644 433.203,444.644 
		433.203,491.265 433.203,491.265 	"/>
	<path fill-rule="evenodd" clip-rule="evenodd" d="M467.51,443.32c-13.198,0-20.674,10.991-20.674,24.634
		c0,14.072,7.476,24.629,20.674,24.629c13.193,0,20.669-10.557,20.669-24.629C488.179,454.312,480.703,443.32,467.51,443.32
		L467.51,443.32L467.51,443.32L467.51,443.32z M467.51,484.224c-8.359,0-11.436-8.359-11.436-16.27c0-7.92,3.076-15.83,11.436-15.83
		c8.354,0,11.436,7.91,11.436,15.83C478.945,475.864,475.864,484.224,467.51,484.224L467.51,484.224L467.51,484.224z"/>
	<polygon fill-rule="evenodd" clip-rule="evenodd" points="518.525,475.864 518.525,475.864 500.933,444.644 491.699,444.644 
		491.699,491.265 500.493,491.265 500.493,460.034 500.493,460.034 518.086,491.265 527.324,491.265 527.324,444.644 
		518.525,444.644 518.525,475.864 518.525,475.864 	"/>
	<path fill-rule="evenodd" clip-rule="evenodd" d="M545.352,456.079c1.318-0.439,2.202-1.318,2.202-2.637
		c0-1.768-0.884-2.646-3.081-2.646l0,0h-3.521v9.678h0.884v-4.395h2.637l2.637,4.395h1.323L545.352,456.079L545.352,456.079
		L545.352,456.079z M544.033,455.2h-2.197v-3.525h2.637c1.318,0,2.637,0,2.637,1.768C547.109,454.761,545.352,455.2,544.033,455.2
		L544.033,455.2L544.033,455.2L544.033,455.2z"/>
</g>
</svg>
